<svg width="41" height="53" fill="none" xmlns="http://www.w3.org/2000/svg"><g opacity=".1" fill="#FE753F"><path d="M9.647 52.944h3.884a.895.895 0 00.903-.903v-8.834a5.975 5.975 0 015.98-5.98c1.59 0 3.089.633 4.227 1.753a6.007 6.007 0 011.752 4.227v8.834c0 .506.398.903.903.903h3.884c5.312 0 9.647-4.336 9.647-9.647V19.108a.915.915 0 00-.289-.668L21.028.79a.934.934 0 00-1.229 0L.29 18.44a.915.915 0 00-.289.668v24.19c0 5.31 4.336 9.646 9.647 9.646z"/><path d="M11.405 29.427H31.66V53H11.405z"/></g></svg>